#tb 0: 33369/500000
0,          0,          0,        1,    65712, 0x03ff25b8
0,          1,          1,        1,    65712, 0xfca02276
0,          2,          2,        1,    65712, 0xd23646e4
0,          3,          3,        1,    65712, 0x9ea43556
0,          4,          4,        1,    65712, 0x47412948
0,          5,          5,        1,    65712, 0x667230c9
0,          6,          6,        1,    65712, 0x8224247a
0,          7,          7,        1,    65712, 0x9c0f1d71
0,          8,          8,        1,    65712, 0x4fbb2e11
0,          9,          9,        1,    65712, 0x0e4a2e34
0,         10,         10,        1,    65712, 0xd58954c8
0,         11,         11,        1,    65712, 0x131d3e2c
0,         12,         12,        1,    65712, 0x3b686bc7
0,         13,         13,        1,    65712, 0xbea342a7
0,         14,         14,        1,    65712, 0xbdff4ac7
0,         15,         15,        1,    65712, 0x215e22ab
0,         16,         16,        1,    65712, 0xa9f0295f
0,         17,         17,        1,    65712, 0x46fb32f3
0,         18,         18,        1,    65712, 0xd8be5bee
0,         19,         19,        1,    65712, 0x526411b6
0,         20,         20,        1,    65712, 0x53951e21
0,         21,         21,        1,    65712, 0x54a70ab3
0,         22,         22,        1,    65712, 0xcc872e7a
0,         23,         23,        1,    65712, 0x06b2164c
0,         24,         24,        1,    65712, 0x1ae5135f
0,         25,         25,        1,    65712, 0x8d8a40b4
0,         26,         26,        1,    65712, 0x3d732893
0,         27,         27,        1,    65712, 0x239a52a8
0,         28,         28,        1,    65712, 0xf6bd2fc9
0,         29,         29,        1,    65712, 0x40b336c4
